<svg width="152" height="40" viewBox="0 0 152 40" fill="none" xmlns="http://www.w3.org/2000/svg">
    <path d="M31.5521 0H8.88542C4.09895 0 0.21875 3.8802 0.21875 8.66667V31.3333C0.21875 36.1198 4.09895 40 8.88542 40H31.5521C36.3386 40 40.2187 36.1198 40.2187 31.3333V8.66667C40.2187 3.8802 36.3386 0 31.5521 0Z" fill="#673AB7"/>
    <path d="M8.55469 30.167C8.55469 29.3386 9.20761 28.667 10.013 28.667H18.763C19.5684 28.667 20.2214 29.3386 20.2214 30.167C20.2214 30.9954 19.5684 31.667 18.763 31.667H10.013C9.20761 31.667 8.55469 30.9954 8.55469 30.167Z" fill="white"/>
    <path fill-rule="evenodd" clip-rule="evenodd" d="M15.853 8.3335C11.8223 8.3335 8.55469 11.5794 8.55469 15.5835V19.9335C8.55469 21.5351 9.86172 22.8335 11.474 22.8335H24.5897C28.6204 22.8335 31.888 19.5876 31.888 15.5835C31.888 11.5794 28.6204 8.3335 24.5897 8.3335H15.853ZM15.8422 11.2303C13.4238 11.2303 11.4632 13.1778 11.4632 15.5803V18.4803C11.4632 19.2811 12.1167 19.9303 12.9229 19.9303H24.5842C27.0027 19.9303 28.9632 17.9827 28.9632 15.5803C28.9632 13.1778 27.0027 11.2303 24.5842 11.2303H15.8422Z" fill="white"/>
    <path d="M50.8111 12.7092V14.6132C51.9569 13.2834 53.7358 12.4372 55.8163 12.4372C59.7662 12.4372 63.1432 15.5803 63.1432 20.2647C63.1432 24.9793 59.7361 28.1223 55.8163 28.1223C53.977 28.1223 52.3187 27.397 51.1729 26.2486V34.1667H47.5547V12.7092H50.8111ZM50.8111 20.99C51.0825 23.4682 53.1026 25.0397 55.3942 25.0397C57.8063 25.0397 59.8567 23.0451 59.8567 20.2949C59.8567 17.4843 57.8063 15.4896 55.3942 15.4896C53.1026 15.4896 51.0825 17.1216 50.8111 19.5696V20.99Z" fill="white"/>
    <path d="M71.0291 28.1525C67.9235 28.1525 65.5113 26.6112 65.5113 22.4709V12.7092H69.1296V21.7455C69.1296 24.405 70.2452 25.1908 72.0242 25.1908C74.1649 25.1908 75.9439 23.8913 75.9439 20.8389V12.7092H79.5621V27.8201H76.1851L76.155 25.8255C75.2203 27.4574 73.5317 28.1525 71.0291 28.1525Z" fill="white"/>
    <path d="M102.152 12.407C105.077 12.407 107.67 14.1901 107.639 17.9678L107.609 27.8201H104.021V18.6327C104.021 16.2452 102.785 15.3385 101.127 15.3385C99.1366 15.3385 97.4783 16.8194 97.4783 19.63V27.8201H93.86V18.6327C93.86 16.2452 92.6238 15.3385 90.9655 15.3385C89.2468 15.3385 87.3171 16.6078 87.3171 19.7811V27.8201H83.6988V12.7092H86.8949L87.0457 15.3083C88.101 13.3439 89.9403 12.407 91.9906 12.407C94.1616 12.407 96.1214 13.3741 96.9958 15.4292C97.9908 13.4043 100.101 12.407 102.152 12.407Z" fill="white"/>
    <path d="M111.274 6H114.892V14.2505C116.038 13.1323 117.666 12.4372 119.476 12.4372C123.395 12.4372 126.802 15.5803 126.802 20.2949C126.802 24.9793 123.425 28.1223 119.476 28.1223C117.365 28.1223 115.586 27.2761 114.44 25.9161V27.8201H111.274V6ZM114.44 20.4158C114.44 23.1962 116.581 25.0699 119.053 25.0699C121.466 25.0699 123.516 23.0753 123.516 20.2647C123.516 17.5145 121.466 15.5199 119.053 15.5199C116.581 15.5199 114.44 17.3332 114.44 20.1438V20.4158Z" fill="white"/>
    <path d="M129.771 6H133.389V27.8201H129.771V6Z" fill="white"/>
    <path d="M144.515 28.1223C139.54 28.1223 136.525 24.9793 136.525 20.2647C136.525 15.943 139.329 12.407 144.304 12.407C148.917 12.407 151.721 15.4292 151.721 19.9927C151.721 20.5064 151.661 21.2318 151.601 21.6246H140.143C140.625 24.0726 142.435 25.3419 144.515 25.3419C146.324 25.3419 147.982 24.6166 148.435 23.3473L151.39 24.5259C150.365 26.853 147.802 28.1223 144.515 28.1223ZM140.143 18.9954H148.344C147.983 16.6381 146.384 15.1874 144.274 15.1874C142.073 15.1874 140.535 16.6078 140.143 18.9954Z" fill="white"/>
</svg>
