<svg width="153" height="40" viewBox="0 0 153 40" fill="none" xmlns="http://www.w3.org/2000/svg">
    <path d="M32.1576 0H9.49088C4.70442 0 0.824219 3.8802 0.824219 8.66667V31.3333C0.824219 36.1198 4.70442 40 9.49088 40H32.1576C36.944 40 40.8242 36.1198 40.8242 31.3333V8.66667C40.8242 3.8802 36.944 0 32.1576 0Z" fill="#673AB7"/>
    <path d="M9.15625 30.1665C9.15625 29.3381 9.80917 28.6665 10.6146 28.6665H19.3646C20.17 28.6665 20.8229 29.3381 20.8229 30.1665C20.8229 30.9949 20.17 31.6665 19.3646 31.6665H10.6146C9.80917 31.6665 9.15625 30.9949 9.15625 30.1665Z" fill="white"/>
    <path fill-rule="evenodd" clip-rule="evenodd" d="M16.4546 8.33325C12.4238 8.33325 9.15625 11.5792 9.15625 15.5832V19.9333C9.15625 21.5349 10.4633 22.8333 12.0756 22.8333H25.1912C29.222 22.8333 32.4896 19.5873 32.4896 15.5833C32.4896 11.5792 29.222 8.33325 25.1912 8.33325H16.4546ZM16.4438 11.23C14.0253 11.23 12.0648 13.1776 12.0648 15.58V18.48C12.0648 19.2808 12.7183 19.93 13.5245 19.93H25.1858C27.6042 19.93 29.5648 17.9825 29.5648 15.58C29.5648 13.1776 27.6042 11.23 25.1858 11.23H16.4438Z" fill="white"/>
    <path d="M51.4127 12.7092V14.6132C52.5584 13.2834 54.3374 12.4372 56.4179 12.4372C60.3678 12.4372 63.7448 15.5803 63.7448 20.2647C63.7448 24.9793 60.3376 28.1223 56.4179 28.1223C54.5786 28.1223 52.9203 27.397 51.7745 26.2486V34.1667H48.1562V12.7092H51.4127ZM51.4127 20.99C51.684 23.4682 53.7042 25.0397 55.9958 25.0397C58.4079 25.0397 60.4582 23.0451 60.4582 20.2949C60.4582 17.4843 58.4079 15.4896 55.9958 15.4896C53.7042 15.4896 51.684 17.1216 51.4127 19.5696V20.99Z" fill="black"/>
    <path d="M71.6307 28.1525C68.5251 28.1525 66.1129 26.6112 66.1129 22.4709V12.7092H69.7311V21.7455C69.7311 24.405 70.8468 25.1908 72.6257 25.1908C74.7665 25.1908 76.5455 23.8913 76.5455 20.8389V12.7092H80.1637V27.8201H76.7867L76.7565 25.8255C75.8218 27.4574 74.1333 28.1525 71.6307 28.1525Z" fill="black"/>
    <path d="M102.753 12.407C105.678 12.407 108.271 14.1901 108.241 17.9678L108.211 27.8201H104.623V18.6327C104.623 16.2452 103.387 15.3385 101.728 15.3385C99.7382 15.3385 98.0798 16.8194 98.0798 19.63V27.8201H94.4616V18.6327C94.4616 16.2452 93.2254 15.3385 91.567 15.3385C89.8484 15.3385 87.9186 16.6078 87.9186 19.7811V27.8201H84.3004V12.7092H87.4965L87.6473 15.3083C88.7026 13.3439 90.5418 12.407 92.5922 12.407C94.7631 12.407 96.723 13.3741 97.5974 15.4292C98.5924 13.4043 100.703 12.407 102.753 12.407Z" fill="black"/>
    <path d="M111.876 6H115.494V14.2505C116.64 13.1323 118.268 12.4372 120.077 12.4372C123.997 12.4372 127.404 15.5803 127.404 20.2949C127.404 24.9793 124.027 28.1223 120.077 28.1223C117.966 28.1223 116.187 27.2761 115.042 25.9161V27.8201H111.876V6ZM115.042 20.4158C115.042 23.1962 117.182 25.0699 119.655 25.0699C122.067 25.0699 124.117 23.0753 124.117 20.2647C124.117 17.5145 122.067 15.5199 119.655 15.5199C117.182 15.5199 115.042 17.3332 115.042 20.1438V20.4158Z" fill="black"/>
    <path d="M130.372 6H133.991V27.8201H130.372V6Z" fill="black"/>
    <path d="M145.117 28.1223C140.142 28.1223 137.126 24.9793 137.126 20.2647C137.126 15.943 139.93 12.407 144.906 12.407C149.519 12.407 152.323 15.4292 152.323 19.9927C152.323 20.5064 152.263 21.2318 152.202 21.6246H140.745C141.227 24.0726 143.036 25.3419 145.117 25.3419C146.926 25.3419 148.584 24.6166 149.036 23.3473L151.991 24.5259C150.966 26.853 148.403 28.1223 145.117 28.1223ZM140.745 18.9954H148.946C148.584 16.6381 146.986 15.1874 144.875 15.1874C142.674 15.1874 141.137 16.6078 140.745 18.9954Z" fill="black"/>
</svg>
